<!DOCTYPE svg PUBLIC "-//W3C//DTD SVG 1.1//EN" "http://www.w3.org/Graphics/SVG/1.1/DTD/svg11.dtd">
<!-- Uploaded to: SVG Repo, www.svgrepo.com, Transformed by: SVG Repo Mixer Tools -->
<svg fill="#000000" height="131px" width="131px" version="1.1" id="Layer_1" xmlns="http://www.w3.org/2000/svg" xmlns:xlink="http://www.w3.org/1999/xlink" viewBox="0 0 512 512" xml:space="preserve" stroke="#000000" stroke-width="0.00512">
<g id="SVGRepo_bgCarrier" stroke-width="0"/>
<g id="SVGRepo_tracerCarrier" stroke-linecap="round" stroke-linejoin="round" stroke="#CCCCCC" stroke-width="1.024"/>
<g id="SVGRepo_iconCarrier"> <g> <g> <path d="M491.564,0.894c-1.351-0.827-4.014-1.818-6.626,0.793L206.577,280.048l43.163,43.163l44.378-44.378 c2.291-2.29,5.397-3.577,8.635-3.577s6.345,1.287,8.635,3.577l25.291,25.293l19.881-19.881 C418.61,222.198,469.235,84.004,493.889,7.15C495.019,3.629,492.917,1.719,491.564,0.894z"/> </g> </g> <g> <g> <path d="M189.306,297.318L26.713,459.911c-11.9,11.9-11.9,31.263,0,43.163c11.901,11.901,31.264,11.901,43.163,0l162.593-162.593 L189.306,297.318z"/> </g> </g> </g>
</svg>